<?xml version="1.0" encoding="utf-8"?>
<!-- Generator: Adobe Illustrator 21.0.1, SVG Export Plug-In . SVG Version: 6.00 Build 0)  -->
<svg version="1.1" xmlns="http://www.w3.org/2000/svg" xmlns:xlink="http://www.w3.org/1999/xlink" x="0px" y="0px"
	 width="2073.2px" height="2216px" viewBox="0 0 2073.2 2216" style="enable-background:new 0 0 2073.2 2216;" xml:space="preserve"
	>
<style type="text/css">
	.st0{fill:#BCD54E;}
	.st1{fill:#F0AD4E;}
</style>
<g id="Layer_1">
</g>
<g id="Layer_2">
	<path class="st0" d="M663.7,82.1l-4-1.5c-5.2-2-11,0.7-13,5.8l-62,163.5c-2,5.2,0.7,11,5.8,13l4,1.5c5.2,2,11-0.7,13-5.8l62-163.5
		C671.5,89.9,668.9,84,663.7,82.1z"/>
	<circle class="st0" cx="667.6" cy="66" r="43.1"/>
	<circle class="st0" cx="230.3" cy="122" r="73.5"/>
	<g>
		<path class="st0" d="M738.9,235.9H259.6c-57.8,0-129.9,28.9-129.9,76.9l24.9,322c0,47.9,47.3,87.2,105,87.2h479.2
			c57.8,0,105-39.2,105-87.2l27-310C870.9,276.9,796.6,235.9,738.9,235.9z M357.6,504c-16.7,0-30.3-11.3-30.3-25.2
			s13.6-25.2,30.3-25.2c16.7,0,30.3,11.3,30.3,25.2S374.3,504,357.6,504z M627.6,504c-14.3,0-25.9-9.6-25.9-21.5
			c0-11.9,11.6-21.5,25.9-21.5s25.9,9.6,25.9,21.5C653.5,494.4,641.9,504,627.6,504z"/>
	</g>
	<path class="st0" d="M242.8,164l-11,4.7c-6.1,2.6-8.9,9.7-6.3,15.8l67.5,157.1c2.6,6.1,9.7,8.9,15.8,6.3l11-4.7
		c6.1-2.6,8.9-9.7,6.3-15.8l-67.5-157.1C256,164.2,248.9,161.3,242.8,164z"/>
	<path class="st0" d="M676.6,939.8h-369c-6.6,0-12-5.4-12-12V754.7c0-6.6,5.4-12,12-12h369c6.6,0,12,5.4,12,12v173.2
		C688.6,934.4,683.2,939.8,676.6,939.8z"/>
	<g>
		<path class="st0" d="M223.6,793.4c-13.2,34.7-1.3,71.4,26.5,81.9c9.3,3.5,19.2,3.7,28.7,1V746.9
			C256.3,748.5,233.9,766.3,223.6,793.4z"/>
		<path class="st0" d="M298.6,749.9v116.5c10.9-8.1,20.1-20.1,25.7-34.9C337.3,797.2,325.8,760.9,298.6,749.9z"/>
	</g>
	<g>
		<path class="st0" d="M672.3,755.9c-24.4,17-27,55.4-5.8,85.9c6,8.6,13.3,15.7,21.2,21V749.1C682.3,750.4,677.1,752.6,672.3,755.9z
			"/>
		<path class="st0" d="M754.9,780.4c-12.3-17.7-30-28.8-47.4-31.7v123.4c14.7,4.1,29.6,2.5,41.6-5.8
			C773.5,849.3,776.1,810.8,754.9,780.4z"/>
	</g>
	<g>
		<path class="st0" d="M401.7,912.5c-17.8,0-33.5,10.7-43.3,27.3H445C435.2,923.3,419.4,912.5,401.7,912.5z"/>
		<path class="st0" d="M347.8,979.7c0,37.1,24.1,67.2,53.8,67.2s53.8-30.1,53.8-67.2c0-6.2-0.7-12.2-1.9-17.9H349.8
			C348.5,967.6,347.8,973.6,347.8,979.7z"/>
	</g>
	<g>
		<path class="st0" d="M581.4,903.8c-19.4,0-36.4,14.1-45.8,35.2h91.7C617.7,917.9,600.8,903.8,581.4,903.8z"/>
		<path class="st0" d="M527.6,977.7c0,40.8,24.1,73.9,53.8,73.9s53.8-33.1,53.8-73.9c0-5.8-0.5-11.4-1.4-16.7H529
			C528.1,966.4,527.6,972,527.6,977.7z"/>
	</g>
	<path class="st1" d="M1730.3,78.6l-4-1.5c-5.2-2-11,0.7-13,5.8l-62,163.5c-2,5.2,0.7,11,5.8,13l4,1.5c5.2,2,11-0.7,13-5.8l62-163.5
		C1738.1,86.4,1735.5,80.6,1730.3,78.6z"/>
	<circle class="st1" cx="1731.7" cy="70.7" r="43.1"/>
	<circle class="st1" cx="1296.9" cy="118.5" r="73.5"/>
	<g>
		<path class="st1" d="M1805.5,232.5h-479.2c-57.8,0-129.9,28.9-129.9,76.9l24.9,322c0,47.9,47.3,87.2,105,87.2h479.2
			c57.8,0,105-39.2,105-87.2l27-310C1937.5,273.4,1863.2,232.5,1805.5,232.5z M1424.2,500.6c-16.7,0-30.3-11.3-30.3-25.2
			c0-13.9,13.6-25.2,30.3-25.2s30.3,11.3,30.3,25.2C1454.5,489.3,1440.9,500.6,1424.2,500.6z M1694.2,500.6
			c-14.3,0-25.9-9.6-25.9-21.5c0-11.9,11.6-21.5,25.9-21.5s25.9,9.6,25.9,21.5C1720.1,490.9,1708.5,500.6,1694.2,500.6z"/>
	</g>
	<path class="st1" d="M1309.5,160.5l-11,4.7c-6.1,2.6-8.9,9.7-6.3,15.8l67.5,157.1c2.6,6.1,9.7,8.9,15.8,6.3l11-4.7
		c6.1-2.6,8.9-9.7,6.3-15.8l-67.5-157.1C1322.6,160.7,1315.5,157.9,1309.5,160.5z"/>
	<path class="st1" d="M1743.2,936.4h-369c-6.6,0-12-5.4-12-12V751.2c0-6.6,5.4-12,12-12h369c6.6,0,12,5.4,12,12v173.2
		C1755.2,931,1749.8,936.4,1743.2,936.4z"/>
	<g>
		<path class="st1" d="M1290.2,789.9c-13.2,34.7-1.3,71.4,26.5,81.9c9.3,3.5,19.2,3.7,28.7,1V743.4
			C1322.9,745,1300.5,762.8,1290.2,789.9z"/>
		<path class="st1" d="M1365.2,746.5v116.5c10.9-8.1,20.1-20.1,25.7-34.9C1403.9,793.7,1392.4,757.4,1365.2,746.5z"/>
	</g>
	<g>
		<path class="st1" d="M1739,752.4c-24.4,17-27,55.4-5.8,85.9c6,8.6,13.3,15.7,21.2,21V745.7C1748.9,746.9,1743.7,749.1,1739,752.4z
			"/>
		<path class="st1" d="M1821.5,776.9c-12.3-17.7-30-28.8-47.4-31.7v123.4c14.7,4.1,29.6,2.5,41.6-5.8
			C1840.1,845.8,1842.7,807.4,1821.5,776.9z"/>
	</g>
	<g>
		<path class="st1" d="M1468.3,909.1c-17.8,0-33.5,10.7-43.3,27.3h86.6C1501.8,919.8,1486,909.1,1468.3,909.1z"/>
		<path class="st1" d="M1414.4,976.3c0,37.1,24.1,67.2,53.8,67.2c29.7,0,53.8-30.1,53.8-67.2c0-6.2-0.7-12.2-1.9-17.9h-103.8
			C1415.1,964.1,1414.4,970.1,1414.4,976.3z"/>
	</g>
	<g>
		<path class="st1" d="M1648,900.3c-19.4,0-36.4,14.1-45.8,35.2h91.7C1684.4,914.4,1667.4,900.3,1648,900.3z"/>
		<path class="st1" d="M1594.2,974.3c0,40.8,24.1,73.9,53.8,73.9c29.7,0,53.8-33.1,53.8-73.9c0-5.8-0.5-11.4-1.4-16.7h-104.9
			C1594.7,962.9,1594.2,968.5,1594.2,974.3z"/>
	</g>
	<path class="st1" d="M663.7,1176.4l-4-1.5c-5.2-2-11,0.7-13,5.8l-62,163.5c-2,5.2,0.7,11,5.8,13l4,1.5c5.2,2,11-0.7,13-5.8
		l62-163.5C671.5,1184.2,668.9,1178.4,663.7,1176.4z"/>
	<circle class="st1" cx="667.6" cy="1160.3" r="43.1"/>
	<circle class="st1" cx="230.3" cy="1216.3" r="73.5"/>
	<g>
		<path class="st1" d="M738.9,1330.3H259.6c-57.8,0-129.9,28.9-129.9,76.9l24.9,322c0,47.9,47.3,87.2,105,87.2h479.2
			c57.8,0,105-39.2,105-87.2l27-310C870.9,1371.2,796.6,1330.3,738.9,1330.3z M357.6,1598.4c-16.7,0-30.3-11.3-30.3-25.2
			s13.6-25.2,30.3-25.2c16.7,0,30.3,11.3,30.3,25.2S374.3,1598.4,357.6,1598.4z M627.6,1598.4c-14.3,0-25.9-9.6-25.9-21.5
			s11.6-21.5,25.9-21.5s25.9,9.6,25.9,21.5S641.9,1598.4,627.6,1598.4z"/>
	</g>
	<path class="st1" d="M242.8,1258.3l-11,4.7c-6.1,2.6-8.9,9.7-6.3,15.8l67.5,157.1c2.6,6.1,9.7,8.9,15.8,6.3l11-4.7
		c6.1-2.6,8.9-9.7,6.3-15.8l-67.5-157.1C256,1258.5,248.9,1255.7,242.8,1258.3z"/>
	<path class="st1" d="M676.6,2034.2h-369c-6.6,0-12-5.4-12-12V1849c0-6.6,5.4-12,12-12h369c6.6,0,12,5.4,12,12v173.2
		C688.6,2028.8,683.2,2034.2,676.6,2034.2z"/>
	<g>
		<path class="st1" d="M223.6,1887.7c-13.2,34.7-1.3,71.4,26.5,81.9c9.3,3.5,19.2,3.7,28.7,1v-129.5
			C256.3,1842.8,233.9,1860.7,223.6,1887.7z"/>
		<path class="st1" d="M298.6,1844.3v116.5c10.9-8.1,20.1-20.1,25.7-34.9C337.3,1891.5,325.8,1855.3,298.6,1844.3z"/>
	</g>
	<g>
		<path class="st1" d="M672.3,1850.3c-24.4,17-27,55.4-5.8,85.9c6,8.6,13.3,15.7,21.2,21v-113.7
			C682.3,1844.8,677.1,1847,672.3,1850.3z"/>
		<path class="st1" d="M754.9,1874.7c-12.3-17.7-30-28.8-47.4-31.7v123.4c14.7,4.1,29.6,2.5,41.6-5.8
			C773.5,1943.7,776.1,1905.2,754.9,1874.7z"/>
	</g>
	<g>
		<path class="st1" d="M401.7,2006.9c-17.8,0-33.5,10.7-43.3,27.3H445C435.2,2017.6,419.4,2006.9,401.7,2006.9z"/>
		<path class="st1" d="M347.8,2074.1c0,37.1,24.1,67.2,53.8,67.2s53.8-30.1,53.8-67.2c0-6.2-0.7-12.2-1.9-17.9H349.8
			C348.5,2061.9,347.8,2067.9,347.8,2074.1z"/>
	</g>
	<g>
		<path class="st1" d="M581.4,1998.2c-19.4,0-36.4,14.1-45.8,35.2h91.7C617.7,2012.2,600.8,1998.2,581.4,1998.2z"/>
		<path class="st1" d="M527.6,2072.1c0,40.8,24.1,73.9,53.8,73.9s53.8-33.1,53.8-73.9c0-5.8-0.5-11.4-1.4-16.7H529
			C528.1,2060.8,527.6,2066.4,527.6,2072.1z"/>
	</g>
	<path class="st0" d="M1765.6,1201.4l-4-1.5c-5.2-2-11,0.7-13,5.8l-62,163.5c-2,5.2,0.7,11,5.8,13l4,1.5c5.2,2,11-0.7,13-5.8
		l62-163.5C1773.4,1209.2,1770.7,1203.4,1765.6,1201.4z"/>
	<circle class="st0" cx="1769.5" cy="1185.3" r="43.1"/>
	<circle class="st0" cx="1332.2" cy="1241.3" r="73.5"/>
	<g>
		<path class="st0" d="M1840.7,1355.3h-479.2c-57.8,0-129.9,28.9-129.9,76.9l24.9,322c0,47.9,47.3,87.2,105,87.2h479.2
			c57.8,0,105-39.2,105-87.2l27-310C1972.7,1396.2,1898.5,1355.3,1840.7,1355.3z M1459.4,1623.4c-16.7,0-30.3-11.3-30.3-25.2
			s13.6-25.2,30.3-25.2s30.3,11.3,30.3,25.2S1476.2,1623.4,1459.4,1623.4z M1729.5,1623.4c-14.3,0-25.9-9.6-25.9-21.5
			s11.6-21.5,25.9-21.5s25.9,9.6,25.9,21.5S1743.8,1623.4,1729.5,1623.4z"/>
	</g>
	<path class="st0" d="M1344.7,1283.3l-11,4.7c-6.1,2.6-8.9,9.7-6.3,15.8l67.5,157.1c2.6,6.1,9.7,8.9,15.8,6.3l11-4.7
		c6.1-2.6,8.9-9.7,6.3-15.8l-67.5-157.1C1357.9,1283.5,1350.8,1280.7,1344.7,1283.3z"/>
	<path class="st0" d="M1778.5,2059.2h-369c-6.6,0-12-5.4-12-12V1874c0-6.6,5.4-12,12-12h369c6.6,0,12,5.4,12,12v173.2
		C1790.5,2053.8,1785.1,2059.2,1778.5,2059.2z"/>
	<g>
		<path class="st0" d="M1325.5,1912.7c-13.2,34.7-1.3,71.4,26.5,81.9c9.3,3.5,19.2,3.7,28.7,1v-129.5
			C1358.1,1867.8,1335.7,1885.6,1325.5,1912.7z"/>
		<path class="st0" d="M1400.5,1869.3v116.5c10.9-8.1,20.1-20.1,25.7-34.9C1439.2,1916.5,1427.7,1880.2,1400.5,1869.3z"/>
	</g>
	<g>
		<path class="st0" d="M1774.2,1875.2c-24.4,17-27,55.4-5.8,85.9c6,8.6,13.3,15.7,21.2,21v-113.7
			C1784.1,1869.7,1778.9,1871.9,1774.2,1875.2z"/>
		<path class="st0" d="M1856.8,1899.7c-12.3-17.7-30-28.8-47.4-31.7v123.4c14.7,4.1,29.6,2.5,41.6-5.8
			C1875.4,1968.6,1878,1930.2,1856.8,1899.7z"/>
	</g>
	<g>
		<path class="st0" d="M1503.5,2031.9c-17.8,0-33.5,10.7-43.3,27.3h86.6C1537,2042.6,1521.3,2031.9,1503.5,2031.9z"/>
		<path class="st0" d="M1449.7,2099.1c0,37.1,24.1,67.2,53.8,67.2c29.7,0,53.8-30.1,53.8-67.2c0-6.2-0.7-12.2-1.9-17.9h-103.8
			C1450.4,2086.9,1449.7,2092.9,1449.7,2099.1z"/>
	</g>
	<g>
		<path class="st0" d="M1683.3,2023.1c-19.4,0-36.4,14.1-45.8,35.2h91.7C1719.6,2037.2,1702.6,2023.1,1683.3,2023.1z"/>
		<path class="st0" d="M1629.4,2097.1c0,40.8,24.1,73.9,53.8,73.9c29.7,0,53.8-33.1,53.8-73.9c0-5.8-0.5-11.4-1.4-16.7h-104.9
			C1629.9,2085.7,1629.4,2091.3,1629.4,2097.1z"/>
	</g>
</g>
</svg>
